<svg width="584" height="151" viewBox="0 0 584 151" fill="none" xmlns="http://www.w3.org/2000/svg">
<path fill-rule="evenodd" clip-rule="evenodd" d="M146.311 116.581L91.9619 24.9648C88.4319 19.0141 79.8185 19.0141 76.2885 24.9648L21.9399 116.581C17.2599 124.47 25.8554 133.55 33.9891 129.31L60.9565 115.25C75.4749 107.68 92.7755 107.68 107.294 115.25L134.261 129.31C142.395 133.55 150.991 124.47 146.311 116.581ZM109.595 14.5047C98.1219 -4.8349 70.1285 -4.83492 58.6558 14.5047L4.30722 106.121C-10.9028 131.761 17.0326 161.271 43.4672 147.489L70.4346 133.429C79.0137 128.956 89.2367 128.956 97.8158 133.429L124.783 147.489C151.218 161.271 179.153 131.761 163.943 106.121L109.595 14.5047Z" fill="black"/>
<path d="M233.804 113.686C228.154 113.686 223.462 112.729 219.726 110.816C215.99 108.902 213.211 106.351 211.388 103.162C209.566 99.9725 208.655 96.51 208.655 92.7741C208.655 85.849 211.297 80.5186 216.582 76.7827C221.867 73.0468 229.065 71.1789 238.177 71.1789H256.492V70.3588C256.492 64.4361 254.943 59.9713 251.845 56.9643C248.747 53.8663 244.601 52.3173 239.407 52.3173C234.943 52.3173 231.07 53.4563 227.79 55.7342C224.601 57.9211 222.596 61.1558 221.776 65.4384H210.022C210.477 60.518 212.117 56.3721 214.942 53.0007C217.858 49.6293 221.457 47.0779 225.74 45.3467C230.022 43.5243 234.578 42.6131 239.407 42.6131C248.884 42.6131 255.991 45.1644 260.729 50.2671C265.559 55.2786 267.973 61.9759 267.973 70.3588V112.046H257.722L257.039 99.8814C255.125 103.708 252.301 106.989 248.565 109.722C244.92 112.365 240 113.686 233.804 113.686ZM235.58 103.982C239.954 103.982 243.69 102.843 246.788 100.565C249.977 98.2868 252.392 95.3254 254.032 91.6807C255.672 88.0359 256.492 84.2089 256.492 80.1997V80.063H239.134C232.391 80.063 227.608 81.2475 224.783 83.6166C222.049 85.8946 220.682 88.7648 220.682 92.2274C220.682 95.781 221.958 98.6513 224.509 100.838C227.152 102.934 230.842 103.982 235.58 103.982Z" fill="black"/>
<path d="M307.384 112.046C301.188 112.046 296.313 110.542 292.759 107.535C289.205 104.528 287.429 99.1069 287.429 91.2706V53.9574H275.674V44.2532H287.429L288.932 27.9885H298.91V44.2532H318.865V53.9574H298.91V91.2706C298.91 95.5532 299.775 98.469 301.506 100.018C303.238 101.476 306.29 102.205 310.664 102.205H317.771V112.046H307.384Z" fill="black"/>
<path d="M359.738 113.686C353.36 113.686 347.619 112.228 342.516 109.312C337.414 106.396 333.359 102.296 330.352 97.0111C327.436 91.6351 325.978 85.3479 325.978 78.1495C325.978 70.9511 327.482 64.7094 330.489 59.4245C333.496 54.0485 337.55 49.9026 342.653 46.9868C347.847 44.071 353.633 42.6131 360.011 42.6131C366.39 42.6131 372.13 44.071 377.233 46.9868C382.335 49.9026 386.345 54.0485 389.26 59.4245C392.267 64.7094 393.771 70.9511 393.771 78.1495C393.771 85.3479 392.267 91.6351 389.26 97.0111C386.254 102.296 382.153 106.396 376.959 109.312C371.857 112.228 366.116 113.686 359.738 113.686ZM359.738 103.845C363.656 103.845 367.301 102.888 370.672 100.975C374.044 99.0613 376.777 96.1911 378.873 92.3641C380.969 88.5371 382.016 83.7989 382.016 78.1495C382.016 72.5001 380.969 67.7619 378.873 63.9349C376.868 60.1079 374.18 57.2377 370.809 55.3242C367.437 53.4107 363.838 52.4539 360.011 52.4539C356.093 52.4539 352.448 53.4107 349.077 55.3242C345.706 57.2377 342.972 60.1079 340.876 63.9349C338.781 67.7619 337.733 72.5001 337.733 78.1495C337.733 83.7989 338.781 88.5371 340.876 92.3641C342.972 96.1911 345.66 99.0613 348.94 100.975C352.312 102.888 355.911 103.845 359.738 103.845Z" fill="black"/>
<path d="M407.001 112.046V44.2532H417.388L418.209 54.0941C420.395 50.4493 423.311 47.6246 426.956 45.62C430.601 43.6154 434.701 42.6131 439.257 42.6131C444.633 42.6131 449.235 43.7065 453.062 45.8934C456.98 48.0802 459.987 51.4061 462.082 55.8709C464.451 51.7705 467.686 48.5358 471.786 46.1667C475.978 43.7976 480.488 42.6131 485.318 42.6131C493.427 42.6131 499.897 45.0733 504.726 49.9937C509.555 54.823 511.97 62.2948 511.97 72.409V112.046H500.626V73.6391C500.626 66.6229 499.213 61.338 496.389 57.7844C493.564 54.2308 489.509 52.4539 484.224 52.4539C478.757 52.4539 474.201 54.5952 470.556 58.8778C467.003 63.0693 465.226 69.0832 465.226 76.9194V112.046H453.745V73.6391C453.745 66.6229 452.333 61.338 449.508 57.7844C446.683 54.2308 442.628 52.4539 437.344 52.4539C431.967 52.4539 427.457 54.5952 423.812 58.8778C420.259 63.0693 418.482 69.0832 418.482 76.9194V112.046H407.001Z" fill="black"/>
<path d="M549.082 113.686C543.433 113.686 538.74 112.729 535.005 110.816C531.269 108.902 528.49 106.351 526.667 103.162C524.845 99.9725 523.934 96.51 523.934 92.7741C523.934 85.849 526.576 80.5186 531.861 76.7827C537.146 73.0468 544.344 71.1789 553.456 71.1789H571.771V70.3588C571.771 64.4361 570.222 59.9713 567.124 56.9643C564.026 53.8663 559.88 52.3173 554.686 52.3173C550.221 52.3173 546.349 53.4563 543.069 55.7342C539.879 57.9211 537.875 61.1558 537.055 65.4384H525.3C525.756 60.518 527.396 56.3721 530.221 53.0007C533.137 49.6293 536.736 47.0779 541.018 45.3467C545.301 43.5243 549.857 42.6131 554.686 42.6131C564.163 42.6131 571.27 45.1644 576.008 50.2671C580.837 55.2786 583.252 61.9759 583.252 70.3588V112.046H573.001L572.318 99.8814C570.404 103.708 567.58 106.989 563.844 109.722C560.199 112.365 555.279 113.686 549.082 113.686ZM550.859 103.982C555.233 103.982 558.969 102.843 562.067 100.565C565.256 98.2868 567.671 95.3254 569.311 91.6807C570.951 88.0359 571.771 84.2089 571.771 80.1997V80.063H554.413C547.67 80.063 542.886 81.2475 540.062 83.6166C537.328 85.8946 535.961 88.7648 535.961 92.2274C535.961 95.781 537.237 98.6513 539.788 100.838C542.431 102.934 546.121 103.982 550.859 103.982Z" fill="black"/>
</svg>
